# xmcd
#
# Track frame offsets:
#	150
#	17858
#	32382
#	49475
#	67224
#	83541
#	95122
#	111785
#	126532
#	144347
#	157652
#	171725
#	184772
#
# Disc length: 2614 seconds
#
# Revision: 2
# Processed by: cddbd v1.5.2PL0 Copyright (c) Steve Scherf et al.
# Submitted via: audiograbber 1.83.01
#
DISCID=b60a340d
DTITLE=Various Artist - CDX 027
DYEAR=1992
DGENRE=Country
TTITLE0=Suzy Bogguss - Aces
TTITLE1=Ricky van Shelton - Backroads
TTITLE2=Pam Tillis - Blue Rose Is
TTITLE3=Doug Stone - Come In Out Of The Pain
TTITLE4=Lionel Cartwright - Family Tree
TTITLE5=George Jones - Honky Tonk Myself To Death
TTITLE6=Randy Travis - I'd Surrender All
TTITLE7=Dan Seals - Mason Dixon Line
TTITLE8=Travis Tritt - Nothing Short Of Dying
TTITLE9=Garth Brooks - Papa Loved Mama
TTITLE10=Debra Burns - Runaway Heart
TTITLE11=Confederate Railroad - She Took It Like A Man
TTITLE12=Live' And Kickin' - You Don't Need To Knock
EXTD=
EXTT0=
EXTT1=
EXTT2=
EXTT3=
EXTT4=
EXTT5=
EXTT6=
EXTT7=
EXTT8=
EXTT9=
EXTT10=
EXTT11=
EXTT12=
PLAYORDER=
